<mxfile host="app.diagrams.net" modified="2025-04-24T07:02:00.882Z" agent="Mozilla/5.0 (Macintosh; Intel Mac OS X 10_15_7) AppleWebKit/537.36 (KHTML, like Gecko) Chrome/134.0.0.0 Safari/537.36" etag="zKdz7RtozOAgyLClmc1P" version="24.4.7" type="github">
  <diagram name="Page-1" id="rmxNBz-3H48KLPkofMN0">
    <mxGraphModel dx="1434" dy="761" grid="1" gridSize="10" guides="1" tooltips="1" connect="1" arrows="1" fold="1" page="1" pageScale="1" pageWidth="827" pageHeight="1169" math="0" shadow="0">
      <root>
        <mxCell id="0" />
        <mxCell id="1" parent="0" />
        <mxCell id="jYs0n431p8MNBjK6Ho2J-2" value="Public subnet" style="points=[[0,0],[0.25,0],[0.5,0],[0.75,0],[1,0],[1,0.25],[1,0.5],[1,0.75],[1,1],[0.75,1],[0.5,1],[0.25,1],[0,1],[0,0.75],[0,0.5],[0,0.25]];outlineConnect=0;gradientColor=none;html=1;whiteSpace=wrap;fontSize=12;fontStyle=0;container=1;pointerEvents=0;collapsible=0;recursiveResize=0;shape=mxgraph.aws4.group;grIcon=mxgraph.aws4.group_security_group;grStroke=0;strokeColor=#7AA116;fillColor=#F2F6E8;verticalAlign=top;align=left;spacingLeft=30;fontColor=#248814;dashed=0;" vertex="1" parent="1">
          <mxGeometry x="290" y="505" width="360" height="160" as="geometry" />
        </mxCell>
        <mxCell id="jYs0n431p8MNBjK6Ho2J-1" value="VPC" style="sketch=0;outlineConnect=0;gradientColor=none;html=1;whiteSpace=wrap;fontSize=12;fontStyle=0;shape=mxgraph.aws4.group;grIcon=mxgraph.aws4.group_vpc;strokeColor=#879196;fillColor=none;verticalAlign=top;align=left;spacingLeft=30;fontColor=#879196;dashed=0;" vertex="1" parent="1">
          <mxGeometry x="200" y="490" width="680" height="480" as="geometry" />
        </mxCell>
        <mxCell id="jYs0n431p8MNBjK6Ho2J-5" value="Private subnet" style="points=[[0,0],[0.25,0],[0.5,0],[0.75,0],[1,0],[1,0.25],[1,0.5],[1,0.75],[1,1],[0.75,1],[0.5,1],[0.25,1],[0,1],[0,0.75],[0,0.5],[0,0.25]];outlineConnect=0;gradientColor=none;html=1;whiteSpace=wrap;fontSize=12;fontStyle=0;container=1;pointerEvents=0;collapsible=0;recursiveResize=0;shape=mxgraph.aws4.group;grIcon=mxgraph.aws4.group_security_group;grStroke=0;strokeColor=#00A4A6;fillColor=#E6F6F7;verticalAlign=top;align=left;spacingLeft=30;fontColor=#147EBA;dashed=0;" vertex="1" parent="1">
          <mxGeometry x="290" y="700" width="465" height="210" as="geometry" />
        </mxCell>
        <mxCell id="jYs0n431p8MNBjK6Ho2J-25" style="edgeStyle=orthogonalEdgeStyle;rounded=0;orthogonalLoop=1;jettySize=auto;html=1;exitX=1;exitY=0.5;exitDx=0;exitDy=0;exitPerimeter=0;" edge="1" parent="jYs0n431p8MNBjK6Ho2J-5" source="jYs0n431p8MNBjK6Ho2J-17" target="jYs0n431p8MNBjK6Ho2J-22">
          <mxGeometry relative="1" as="geometry" />
        </mxCell>
        <mxCell id="jYs0n431p8MNBjK6Ho2J-17" value="application-referral" style="outlineConnect=0;dashed=0;verticalLabelPosition=bottom;verticalAlign=top;align=center;html=1;shape=mxgraph.aws3.lambda_function;fillColor=#F58534;gradientColor=none;" vertex="1" parent="jYs0n431p8MNBjK6Ho2J-5">
          <mxGeometry x="140" y="9" width="69" height="72" as="geometry" />
        </mxCell>
        <mxCell id="jYs0n431p8MNBjK6Ho2J-26" style="edgeStyle=orthogonalEdgeStyle;rounded=0;orthogonalLoop=1;jettySize=auto;html=1;exitX=1;exitY=0.5;exitDx=0;exitDy=0;exitPerimeter=0;" edge="1" parent="jYs0n431p8MNBjK6Ho2J-5" source="jYs0n431p8MNBjK6Ho2J-20" target="jYs0n431p8MNBjK6Ho2J-23">
          <mxGeometry relative="1" as="geometry" />
        </mxCell>
        <mxCell id="jYs0n431p8MNBjK6Ho2J-20" value="co-operativebank-proxy" style="outlineConnect=0;dashed=0;verticalLabelPosition=bottom;verticalAlign=top;align=center;html=1;shape=mxgraph.aws3.lambda_function;fillColor=#5294CF;gradientColor=none;" vertex="1" parent="jYs0n431p8MNBjK6Ho2J-5">
          <mxGeometry x="140" y="120.23" width="74.5" height="72.77" as="geometry" />
        </mxCell>
        <mxCell id="jYs0n431p8MNBjK6Ho2J-22" value="ENI" style="sketch=0;outlineConnect=0;fontColor=#232F3E;gradientColor=none;fillColor=#8C4FFF;strokeColor=none;dashed=0;verticalLabelPosition=bottom;verticalAlign=top;align=center;html=1;fontSize=12;fontStyle=0;aspect=fixed;pointerEvents=1;shape=mxgraph.aws4.elastic_network_interface;" vertex="1" parent="jYs0n431p8MNBjK6Ho2J-5">
          <mxGeometry x="260" y="20" width="50" height="50" as="geometry" />
        </mxCell>
        <mxCell id="jYs0n431p8MNBjK6Ho2J-24" value="" style="image;sketch=0;aspect=fixed;html=1;points=[];align=center;fontSize=12;image=img/lib/mscae/Network_Security_Groups_Classic.svg;" vertex="1" parent="jYs0n431p8MNBjK6Ho2J-5">
          <mxGeometry x="340" y="70" width="37" height="50" as="geometry" />
        </mxCell>
        <mxCell id="jYs0n431p8MNBjK6Ho2J-23" value="ENI" style="sketch=0;outlineConnect=0;fontColor=#232F3E;gradientColor=none;fillColor=#8C4FFF;strokeColor=none;dashed=0;verticalLabelPosition=bottom;verticalAlign=top;align=center;html=1;fontSize=12;fontStyle=0;aspect=fixed;pointerEvents=1;shape=mxgraph.aws4.elastic_network_interface;" vertex="1" parent="jYs0n431p8MNBjK6Ho2J-5">
          <mxGeometry x="270" y="131.62" width="50" height="50" as="geometry" />
        </mxCell>
        <mxCell id="jYs0n431p8MNBjK6Ho2J-31" value="" style="endArrow=classic;startArrow=classic;html=1;rounded=0;" edge="1" parent="jYs0n431p8MNBjK6Ho2J-5" source="jYs0n431p8MNBjK6Ho2J-24" target="jYs0n431p8MNBjK6Ho2J-22">
          <mxGeometry width="50" height="50" relative="1" as="geometry">
            <mxPoint x="100" y="110" as="sourcePoint" />
            <mxPoint x="150" y="60" as="targetPoint" />
          </mxGeometry>
        </mxCell>
        <mxCell id="jYs0n431p8MNBjK6Ho2J-32" value="" style="endArrow=classic;startArrow=classic;html=1;rounded=0;entryX=-0.108;entryY=1.048;entryDx=0;entryDy=0;entryPerimeter=0;" edge="1" parent="jYs0n431p8MNBjK6Ho2J-5" source="jYs0n431p8MNBjK6Ho2J-23" target="jYs0n431p8MNBjK6Ho2J-24">
          <mxGeometry width="50" height="50" relative="1" as="geometry">
            <mxPoint x="100" y="110" as="sourcePoint" />
            <mxPoint x="150" y="60" as="targetPoint" />
          </mxGeometry>
        </mxCell>
        <mxCell id="jYs0n431p8MNBjK6Ho2J-9" style="edgeStyle=orthogonalEdgeStyle;rounded=0;orthogonalLoop=1;jettySize=auto;html=1;exitX=1;exitY=0.5;exitDx=0;exitDy=0;exitPerimeter=0;" edge="1" parent="1" source="jYs0n431p8MNBjK6Ho2J-44" target="jYs0n431p8MNBjK6Ho2J-39">
          <mxGeometry relative="1" as="geometry" />
        </mxCell>
        <mxCell id="jYs0n431p8MNBjK6Ho2J-6" value="NAT Gateway" style="outlineConnect=0;dashed=0;verticalLabelPosition=bottom;verticalAlign=top;align=center;html=1;shape=mxgraph.aws3.vpc_nat_gateway;fillColor=#F58534;gradientColor=none;" vertex="1" parent="1">
          <mxGeometry x="460" y="523" width="69" height="72" as="geometry" />
        </mxCell>
        <mxCell id="jYs0n431p8MNBjK6Ho2J-8" value="EIP" style="sketch=0;outlineConnect=0;fontColor=#232F3E;gradientColor=none;fillColor=#ED7100;strokeColor=none;dashed=0;verticalLabelPosition=bottom;verticalAlign=top;align=center;html=1;fontSize=12;fontStyle=0;aspect=fixed;pointerEvents=1;shape=mxgraph.aws4.elastic_ip_address;rotation=90;" vertex="1" parent="1">
          <mxGeometry x="529" y="523" width="50" height="20.83" as="geometry" />
        </mxCell>
        <mxCell id="jYs0n431p8MNBjK6Ho2J-16" style="edgeStyle=orthogonalEdgeStyle;rounded=0;orthogonalLoop=1;jettySize=auto;html=1;exitX=0.5;exitY=0;exitDx=0;exitDy=0;exitPerimeter=0;" edge="1" parent="1" source="jYs0n431p8MNBjK6Ho2J-10" target="jYs0n431p8MNBjK6Ho2J-6">
          <mxGeometry relative="1" as="geometry" />
        </mxCell>
        <mxCell id="jYs0n431p8MNBjK6Ho2J-10" value="Route Table" style="outlineConnect=0;dashed=0;verticalLabelPosition=bottom;verticalAlign=top;align=center;html=1;shape=mxgraph.aws3.route_table;fillColor=#F58536;gradientColor=none;" vertex="1" parent="1">
          <mxGeometry x="690" y="710" width="60" height="60" as="geometry" />
        </mxCell>
        <mxCell id="jYs0n431p8MNBjK6Ho2J-28" value="" style="edgeStyle=orthogonalEdgeStyle;rounded=0;orthogonalLoop=1;jettySize=auto;html=1;" edge="1" parent="1" source="jYs0n431p8MNBjK6Ho2J-23" target="jYs0n431p8MNBjK6Ho2J-10">
          <mxGeometry relative="1" as="geometry">
            <mxPoint x="675" y="856.6199999999999" as="targetPoint" />
          </mxGeometry>
        </mxCell>
        <mxCell id="jYs0n431p8MNBjK6Ho2J-29" value="" style="edgeStyle=orthogonalEdgeStyle;rounded=0;orthogonalLoop=1;jettySize=auto;html=1;" edge="1" parent="1" source="jYs0n431p8MNBjK6Ho2J-22" target="jYs0n431p8MNBjK6Ho2J-10">
          <mxGeometry relative="1" as="geometry" />
        </mxCell>
        <mxCell id="jYs0n431p8MNBjK6Ho2J-38" value="co-operative bank" style="outlineConnect=0;dashed=0;verticalLabelPosition=bottom;verticalAlign=top;align=center;html=1;shape=mxgraph.aws3.bank;fillColor=#5294CF;gradientColor=none;" vertex="1" parent="1">
          <mxGeometry x="930" y="515.5" width="79.5" height="79.5" as="geometry" />
        </mxCell>
        <mxCell id="jYs0n431p8MNBjK6Ho2J-43" value="" style="edgeStyle=orthogonalEdgeStyle;rounded=0;orthogonalLoop=1;jettySize=auto;html=1;entryX=0;entryY=0.5;entryDx=0;entryDy=0;entryPerimeter=0;" edge="1" parent="1" source="jYs0n431p8MNBjK6Ho2J-39" target="jYs0n431p8MNBjK6Ho2J-38">
          <mxGeometry relative="1" as="geometry">
            <mxPoint x="940" y="490" as="targetPoint" />
          </mxGeometry>
        </mxCell>
        <mxCell id="jYs0n431p8MNBjK6Ho2J-39" value="Internet Gateway" style="sketch=0;outlineConnect=0;fontColor=#232F3E;gradientColor=none;fillColor=#8C4FFF;strokeColor=none;dashed=0;verticalLabelPosition=bottom;verticalAlign=top;align=center;html=1;fontSize=12;fontStyle=0;aspect=fixed;pointerEvents=1;shape=mxgraph.aws4.internet_gateway;" vertex="1" parent="1">
          <mxGeometry x="720" y="517" width="78" height="78" as="geometry" />
        </mxCell>
        <mxCell id="jYs0n431p8MNBjK6Ho2J-45" value="" style="edgeStyle=orthogonalEdgeStyle;rounded=0;orthogonalLoop=1;jettySize=auto;html=1;exitX=1;exitY=0.5;exitDx=0;exitDy=0;exitPerimeter=0;" edge="1" parent="1" source="jYs0n431p8MNBjK6Ho2J-6" target="jYs0n431p8MNBjK6Ho2J-44">
          <mxGeometry relative="1" as="geometry">
            <mxPoint x="529" y="559" as="sourcePoint" />
            <mxPoint x="720" y="556" as="targetPoint" />
          </mxGeometry>
        </mxCell>
        <mxCell id="jYs0n431p8MNBjK6Ho2J-44" value="Route table" style="sketch=0;outlineConnect=0;fontColor=#232F3E;gradientColor=none;fillColor=#8C4FFF;strokeColor=none;dashed=0;verticalLabelPosition=bottom;verticalAlign=top;align=center;html=1;fontSize=12;fontStyle=0;aspect=fixed;pointerEvents=1;shape=mxgraph.aws4.route_table;" vertex="1" parent="1">
          <mxGeometry x="579" y="535" width="51.32" height="50" as="geometry" />
        </mxCell>
      </root>
    </mxGraphModel>
  </diagram>
</mxfile>
